# xmcd
#
# Track frame offsets:
#	150
#	15756
#	29874
#	44594
#	59404
#	72608
#	85745
#	99916
#	113703
#	135170
#	147028
#	161932
#	175378
#	193883
#	208646
#	222898
#
# Disc length: 3209 seconds
#
# Revision: 1
# Processed by: cddbd v1.4PL0 Copyright (c) Steve Scherf et al.
# Submitted via: audiograbber 1.81.03
#
DISCID=e80c8710
DTITLE=Tanya Tucker - Tanya Tucker  Disc One
DYEAR=1993
DGENRE=Country
TTITLE0=Delta Dawn
TTITLE1=The Jamestown Ferry
TTITLE2=What's Your Mama's Name Child
TTITLE3=Blood Red And Going Down
TTITLE4=Would You Lasy With Me (In A Field Of Stone)
TTITLE5=San Antonio Stroll
TTITLE6=Don't Believe My Heart Can Stand Another You
TTITLE7=Here's Some Love
TTITLE8=Texas When I Die
TTITLE9=Pecos Promenade
TTITLE10=I'm In Love And He's In Dallas
TTITLE11=One Love At A Time
TTITLE12=I'll Come Back As Another Woman
TTITLE13=Just Another Love
TTITLE14=It's Only Over For You
TTITLE15=Girls Like Me
EXTD=
EXTT0=
EXTT1=
EXTT2=
EXTT3=
EXTT4=
EXTT5=
EXTT6=
EXTT7=
EXTT8=
EXTT9=
EXTT10=
EXTT11=
EXTT12=
EXTT13=
EXTT14=
EXTT15=
PLAYORDER=
